<svg width="126" height="65" viewBox="0 0 126 65" fill="none" xmlns="http://www.w3.org/2000/svg">
<path d="M16.9807 47.6062C10.5174 58.5869 6.7413 62.2471 0.857132 63.7992V64.888H16.8185C27.7529 64.888 33.6139 60.4633 41.2123 47.6062L67.2278 3.47492C68.1313 1.94596 67.0193 1.52588e-05 65.2355 1.52588e-05H44.9884L16.9807 47.6062Z" fill="#00387A"/>
<path d="M0 0V1.0888C4.58687 2.82625 8.5251 6.25483 10.9575 14.7104L14.1081 25.0193C14.5251 26.3861 16.3552 26.5946 17.0965 25.39L30.139 3.49807C31.0656 1.96911 29.9537 0.023166 28.1699 0.023166H0V0Z" fill="#00AACB"/>
<path d="M123.058 0.0232086H102.95V37.3668C102.95 48.3707 96.6023 55.5522 87.5444 57.0116V58.1004H104.757C116.154 58.1004 125.398 48.8572 125.398 37.4595V2.36298C125.398 1.06568 124.355 0.0232086 123.058 0.0232086Z" fill="#00387A"/>
<path d="M89.0502 1.52588e-05H69.9614V1.08882C70.8185 1.08882 71.4903 1.7838 71.4903 2.61778V37.5058C71.4903 42.973 75.8455 47.5367 81.3127 47.6062C86.8726 47.6757 91.39 43.2046 91.39 37.668V2.33978C91.39 1.04249 90.3475 1.52588e-05 89.0502 1.52588e-05Z" fill="#00AACB"/>
</svg>
